<svg xmlns="http://www.w3.org/2000/svg" viewBox="0 0 1000 300" role="img" aria-labelledby="title desc">
  <title id="title">한반도와 정보통신을 상징하는 메인 이미지</title>
  <desc id="desc">노트북, 지구본, 한반도 지도가 어우러진 청색 배너</desc>
  <defs>
    <linearGradient id="sea" x1="0" y1="0" x2="1" y2="0">
      <stop offset="0" stop-color="#8ee7ef"/><stop offset=".48" stop-color="#76d5df"/><stop offset="1" stop-color="#24568e"/>
    </linearGradient>
    <radialGradient id="globe" cx="45%" cy="38%" r="65%">
      <stop offset="0" stop-color="#dffaff"/><stop offset="1" stop-color="#4ca8c7"/>
    </radialGradient>
    <linearGradient id="screen" x1="0" y1="0" x2="1" y2="1">
      <stop stop-color="#1a5f92"/><stop offset="1" stop-color="#94ecf2"/>
    </linearGradient>
    <filter id="shadow"><feDropShadow dx="0" dy="4" stdDeviation="5" flood-opacity=".3"/></filter>
    <filter id="textShadow"><feDropShadow dx="2" dy="2" stdDeviation="1" flood-color="#173f69"/></filter>
  </defs>
  <rect width="1000" height="300" rx="12" fill="url(#sea)"/>
  <g opacity=".34" fill="#d9bd73">
    <path d="M574 7c-17 22-26 45-21 65 3 16-10 24-5 38 5 13 20 18 17 32-4 19-19 28-14 48 5 20 27 24 25 42-2 19-13 33-4 61l75 7c7-28-6-39-2-58 4-20 27-27 26-47-1-15-14-27-9-43 5-16 21-22 20-40-2-25-24-38-19-70z"/>
    <path d="M668 41c19-18 40-22 67-14l72 15-5 52-75 4-38 26-36-20z"/>
  </g>
  <g transform="translate(35 54) rotate(-5 205 120)" filter="url(#shadow)">
    <path d="M56 12h280l20 155H35z" fill="#dfe8ec" stroke="#6f8b9c" stroke-width="4"/>
    <path d="M69 25h251l15 125H49z" fill="url(#screen)"/>
    <circle cx="187" cy="83" r="54" fill="url(#globe)" stroke="#e8ffff" stroke-width="4"/>
    <path d="M155 45c21 8 19 23 37 26 17 3 32 18 24 35-7 15-26 27-43 18-16-8-16-28-31-34-12-5-9-34 13-45z" fill="#4f9f7a" opacity=".85"/>
    <path d="M34 168h325l53 34-415 4z" fill="#cbd6dc" stroke="#708b99" stroke-width="3"/>
    <path d="M121 174h160l21 18H96z" fill="#8ea7b4"/>
    <path d="M-1 206h416l-34 10H23z" fill="#90a8b4"/>
  </g>
  <g transform="translate(429 33)" opacity=".45" fill="#5f8e50">
    <path d="M128 0l12 31-8 27 13 22-7 28 10 22-19 23 7 26-13 24 5 30-16 28 4 26-12 13-13-20 5-27-13-26 11-27-8-28 17-23-9-29 15-25-5-30 15-24z"/>
  </g>
  <path d="M0 245c94-25 139-19 215 8 67 24 125 22 198-2 88-29 155-30 248-2 93 28 215 14 339-14v65H0z" fill="#fff" opacity=".08"/>
  <text x="250" y="164" font-family="Arial, 'Malgun Gothic', sans-serif" font-size="31" font-style="italic" font-weight="800" fill="#fff" stroke="#1a5e91" stroke-width="5" paint-order="stroke" filter="url(#textShadow)">남북 IT교류협력 활성화, 통일IT포럼이 주도하겠습니다.</text>
</svg>
